<svg width="30" height="30" viewBox="0 0 30 30" fill="none" xmlns="http://www.w3.org/2000/svg">
<path d="M23.88 7.44387C24.008 7.31331 24.1607 7.20958 24.3293 7.13878C24.4978 7.06797 24.6788 7.03149 24.8616 7.03149C25.0444 7.03149 25.2254 7.06797 25.3939 7.13878C25.5625 7.20958 25.7152 7.31331 25.8431 7.44387C26.3794 7.98575 26.3869 8.86137 25.8619 9.41262L14.775 22.5189C14.6491 22.6571 14.4964 22.7682 14.3261 22.8454C14.1558 22.9225 13.9716 22.9641 13.7847 22.9676C13.5977 22.9711 13.4121 22.9365 13.239 22.8658C13.0659 22.7951 12.9091 22.6898 12.7781 22.5564L6.0319 15.7201C5.77172 15.4548 5.62598 15.098 5.62598 14.7264C5.62598 14.3548 5.77172 13.998 6.0319 13.7326C6.15986 13.6021 6.31258 13.4983 6.48113 13.4275C6.64967 13.3567 6.83065 13.3202 7.01346 13.3202C7.19628 13.3202 7.37725 13.3567 7.5458 13.4275C7.71434 13.4983 7.86706 13.6021 7.99502 13.7326L13.7175 19.532L23.8425 7.48512L23.88 7.44387Z" fill="#A7A7A7"/>
</svg>
