<svg width="72" height="72" viewBox="0 0 72 72" fill="none" xmlns="http://www.w3.org/2000/svg">
<g clip-path="url(#clip0_319_643)">
<g clip-path="url(#clip1_319_643)">
<g clip-path="url(#clip2_319_643)">
<path d="M40.5352 24.4541C43.0204 24.4541 45.0352 22.4394 45.0352 19.9541C45.0352 17.4688 43.0204 15.4541 40.5352 15.4541C38.0499 15.4541 36.0352 17.4688 36.0352 19.9541C36.0352 22.4394 38.0499 24.4541 40.5352 24.4541Z" fill="#F68820"/>
</g>
<path d="M64.8352 65.8541L45.0352 39.4538V20.5166C45.0352 19.2746 44.0272 18.2666 42.7852 18.2666C41.5432 18.2666 40.5352 19.2746 40.5352 20.5166V39.4538L20.7352 65.8541C19.9893 66.8486 20.1918 68.2594 21.1852 69.0041C21.5902 69.309 22.0638 69.4541 22.5341 69.4541C23.2181 69.4541 23.8931 69.1436 24.3363 68.5541L40.5363 46.9541V67.2041C40.5363 68.4461 41.5443 69.4541 42.7863 69.4541C44.0283 69.4541 45.0363 68.4461 45.0363 67.2041V46.9541L61.2363 68.5541C61.6784 69.1425 62.3546 69.4541 63.0386 69.4541C63.5077 69.4541 63.9824 69.3079 64.3874 69.0041C65.3786 68.2594 65.5799 66.8486 64.8352 65.8541V65.8541Z" fill="#55525B"/>
<g clip-path="url(#clip3_319_643)">
<path d="M36.0311 53.7042C35.0917 53.7042 34.1444 53.4106 33.3344 52.8042C31.3454 51.3125 30.9438 48.4921 32.4344 46.5031L39.1844 37.5031C40.6773 35.5152 43.4966 35.1147 45.4844 36.6031C47.4734 38.0948 47.8751 40.9152 46.3844 42.9042L39.6344 51.9042C38.7502 53.0832 37.3991 53.7042 36.0311 53.7042V53.7042Z" fill="#5C76B2"/>
</g>
<g clip-path="url(#clip4_319_643)">
<path d="M49.5385 53.7041C48.1705 53.7041 46.8193 53.0831 45.9351 51.9041L39.1851 42.9041C37.6945 40.9151 38.0972 38.0959 40.0851 36.603C42.0718 35.1135 44.8922 35.5129 46.3851 37.503L53.1351 46.503C54.6257 48.492 54.223 51.3113 52.2351 52.8041C51.4251 53.4116 50.4778 53.7041 49.5385 53.7041V53.7041Z" fill="#5C76B2"/>
</g>
<g clip-path="url(#clip5_319_643)">
<g clip-path="url(#clip6_319_643)">
<path d="M63.7962 13.4956L59.3648 12.7137C55.6939 12.0668 52.1929 14.5182 51.5449 18.1891C50.8981 21.8599 53.3494 25.3609 57.0203 26.0089L61.4517 26.7908C65.1226 27.4377 68.6236 24.9863 69.2716 21.3154C69.9185 17.6434 67.4671 14.1424 63.7962 13.4956V13.4956Z" fill="#F68820"/>
</g>
<g clip-path="url(#clip7_319_643)">
<path d="M58.1934 26.1113C61.9213 26.1113 64.9434 23.0892 64.9434 19.3613C64.9434 15.6334 61.9213 12.6113 58.1934 12.6113C54.4654 12.6113 51.4434 15.6334 51.4434 19.3613C51.4434 23.0892 54.4654 26.1113 58.1934 26.1113Z" fill="#FBBE18"/>
</g>
<g clip-path="url(#clip8_319_643)">
<path d="M57.4108 23.7938L41.9004 21.059L43.463 12.1962L58.9734 14.9311C61.4214 15.3631 63.0549 17.6963 62.624 20.1443C62.192 22.5901 59.8588 24.2247 57.4108 23.7938Z" fill="#6FA4D8"/>
</g>
<g clip-path="url(#clip9_319_643)">
<path d="M41.9004 21.0578L57.4108 23.7927C59.8588 24.2247 62.192 22.5901 62.624 20.1421L42.6823 16.6264L41.9004 21.0578Z" fill="#5C76B2"/>
</g>
<g clip-path="url(#clip10_319_643)">
<path d="M37.0778 22.4922L21.5674 19.7573L23.9119 6.46207L39.4223 9.19694C43.0931 9.84382 45.5445 13.3448 44.8976 17.0168C44.2508 20.6888 40.7498 23.1402 37.0778 22.4922Z" fill="#6FA4D8"/>
</g>
<g clip-path="url(#clip11_319_643)">
<path d="M21.5674 19.7572L37.0778 22.4921C40.7486 23.139 44.2496 20.6876 44.8976 17.0167L22.7396 13.1096L21.5674 19.7572Z" fill="#5C76B2"/>
</g>
<g clip-path="url(#clip12_319_643)">
<path d="M20.2613 1.2499L15.8299 0.468029C9.71105 -0.610846 3.8768 3.47515 2.7968 9.59403C1.71792 15.7129 5.80392 21.5472 11.9228 22.6272L16.3542 23.409C22.473 24.4879 28.3084 20.4019 29.3873 14.283C30.4662 8.16303 26.3802 2.32878 20.2613 1.2499V1.2499Z" fill="#F68820"/>
</g>
<g clip-path="url(#clip13_319_643)">
<path d="M13.877 22.7971C20.0902 22.7971 25.127 17.7603 25.127 11.5471C25.127 5.33385 20.0902 0.297058 13.877 0.297058C7.66375 0.297058 2.62695 5.33385 2.62695 11.5471C2.62695 17.7603 7.66375 22.7971 13.877 22.7971Z" fill="#FBBE18"/>
</g>
<g clip-path="url(#clip14_319_643)">
<path d="M13.877 20.5471C18.8475 20.5471 22.8769 16.5176 22.8769 11.5471C22.8769 6.5765 18.8475 2.54706 13.877 2.54706C8.90639 2.54706 4.87695 6.5765 4.87695 11.5471C4.87695 16.5176 8.90639 20.5471 13.877 20.5471Z" fill="#55525B"/>
</g>
<g clip-path="url(#clip15_319_643)">
<path d="M12.7484 2.61682C9.80987 2.98695 7.22237 4.7982 5.87012 7.43295C6.29199 9.09795 7.64424 10.4479 9.44537 10.7663C11.8934 11.1983 14.2266 9.5637 14.6586 7.1157C14.9747 5.31457 14.1692 3.58207 12.7484 2.61682Z" fill="#B3B4B6"/>
</g>
</g>
<g clip-path="url(#clip16_319_643)">
<path d="M45.0352 24.4541C47.5204 24.4541 49.5352 22.4394 49.5352 19.9541C49.5352 17.4688 47.5204 15.4541 45.0352 15.4541C42.5499 15.4541 40.5352 17.4688 40.5352 19.9541C40.5352 22.4394 42.5499 24.4541 45.0352 24.4541Z" fill="#FBBE18"/>
</g>
<g clip-path="url(#clip17_319_643)">
<path d="M45.0352 22.2041C46.2778 22.2041 47.2852 21.1968 47.2852 19.9541C47.2852 18.7115 46.2778 17.7041 45.0352 17.7041C43.7925 17.7041 42.7852 18.7115 42.7852 19.9541C42.7852 21.1968 43.7925 22.2041 45.0352 22.2041Z" fill="#55525B"/>
</g>
<g clip-path="url(#clip18_319_643)">
<path d="M22.5352 71.7041C25.0204 71.7041 27.0352 69.6894 27.0352 67.2041C27.0352 64.7189 25.0204 62.7041 22.5352 62.7041C20.0499 62.7041 18.0352 64.7189 18.0352 67.2041C18.0352 69.6894 20.0499 71.7041 22.5352 71.7041Z" fill="#F68820"/>
</g>
<g clip-path="url(#clip19_319_643)">
<path d="M63.0352 71.7041C65.5204 71.7041 67.5352 69.6894 67.5352 67.2041C67.5352 64.7189 65.5204 62.7041 63.0352 62.7041C60.5499 62.7041 58.5352 64.7189 58.5352 67.2041C58.5352 69.6894 60.5499 71.7041 63.0352 71.7041Z" fill="#F68820"/>
</g>
<g clip-path="url(#clip20_319_643)">
<path d="M42.7852 71.7041C45.2704 71.7041 47.2852 69.6894 47.2852 67.2041C47.2852 64.7189 45.2704 62.7041 42.7852 62.7041C40.2999 62.7041 38.2852 64.7189 38.2852 67.2041C38.2852 69.6894 40.2999 71.7041 42.7852 71.7041Z" fill="#F68820"/>
</g>
<g clip-path="url(#clip21_319_643)">
<path d="M42.7852 53.7041C40.3 53.7041 38.2852 51.6893 38.2852 49.2041V40.2041C38.2852 37.719 40.3 35.7041 42.7852 35.7041C45.2703 35.7041 47.2852 37.719 47.2852 40.2041V49.2041C47.2852 51.6893 45.2703 53.7041 42.7852 53.7041Z" fill="#F68820"/>
</g>
<g clip-path="url(#clip22_319_643)">
<path d="M42.7852 53.7041C40.3 53.7041 38.2852 51.6893 38.2852 49.2041V40.2041C38.2852 37.719 40.3 35.7041 42.7852 35.7041C45.2703 35.7041 47.2852 37.719 47.2852 40.2041V49.2041C47.2852 51.6893 45.2703 53.7041 42.7852 53.7041Z" fill="#6FA4D8"/>
</g>
</g>
</g>
<defs>
<clipPath id="clip0_319_643">
<rect width="72" height="72" fill="white"/>
</clipPath>
<clipPath id="clip1_319_643">
<rect width="66.7514" height="71.4089" fill="white" transform="translate(2.62402 0.295258)"/>
</clipPath>
<clipPath id="clip2_319_643">
<rect width="9" height="8.99999" fill="white" transform="translate(36.0352 15.4541)"/>
</clipPath>
<clipPath id="clip3_319_643">
<rect width="15.7505" height="18.0001" fill="white" transform="translate(31.5342 35.7041)"/>
</clipPath>
<clipPath id="clip4_319_643">
<rect width="15.7499" height="18.0012" fill="white" transform="translate(38.2852 35.7029)"/>
</clipPath>
<clipPath id="clip5_319_643">
<rect width="66.7514" height="26.5991" fill="white" transform="translate(2.62402 0.295258)"/>
</clipPath>
<clipPath id="clip6_319_643">
<rect width="17.9337" height="14.2842" fill="white" transform="translate(51.4414 12.6101)"/>
</clipPath>
<clipPath id="clip7_319_643">
<rect width="13.5" height="13.5" fill="white" transform="translate(51.4434 12.6113)"/>
</clipPath>
<clipPath id="clip8_319_643">
<rect width="20.7926" height="11.6665" fill="white" transform="translate(41.9004 12.1962)"/>
</clipPath>
<clipPath id="clip9_319_643">
<rect width="20.7236" height="7.23548" fill="white" transform="translate(41.9004 16.6264)"/>
</clipPath>
<clipPath id="clip10_319_643">
<rect width="23.4338" height="16.134" fill="white" transform="translate(21.5674 6.46207)"/>
</clipPath>
<clipPath id="clip11_319_643">
<rect width="23.3303" height="9.48603" fill="white" transform="translate(21.5674 13.1096)"/>
</clipPath>
<clipPath id="clip12_319_643">
<rect width="26.936" height="23.2865" fill="white" transform="translate(2.62402 0.295258)"/>
</clipPath>
<clipPath id="clip13_319_643">
<rect width="22.5" height="22.5" fill="white" transform="translate(2.62695 0.297058)"/>
</clipPath>
<clipPath id="clip14_319_643">
<rect width="18" height="18" fill="white" transform="translate(4.87695 2.54706)"/>
</clipPath>
<clipPath id="clip15_319_643">
<rect width="8.85681" height="8.21873" fill="white" transform="translate(5.87012 2.61682)"/>
</clipPath>
<clipPath id="clip16_319_643">
<rect width="9" height="8.99999" fill="white" transform="translate(40.5352 15.4541)"/>
</clipPath>
<clipPath id="clip17_319_643">
<rect width="4.5" height="4.49999" fill="white" transform="translate(42.7852 17.7041)"/>
</clipPath>
<clipPath id="clip18_319_643">
<rect width="9" height="9" fill="white" transform="translate(18.0352 62.7041)"/>
</clipPath>
<clipPath id="clip19_319_643">
<rect width="9" height="9" fill="white" transform="translate(58.5352 62.7041)"/>
</clipPath>
<clipPath id="clip20_319_643">
<rect width="9" height="9" fill="white" transform="translate(38.2852 62.7041)"/>
</clipPath>
<clipPath id="clip21_319_643">
<rect width="9" height="18" fill="white" transform="translate(38.2852 35.7041)"/>
</clipPath>
<clipPath id="clip22_319_643">
<rect width="9" height="18" fill="white" transform="translate(38.2852 35.7041)"/>
</clipPath>
</defs>
</svg>
