<svg width="487" height="325" viewBox="0 0 487 325" fill="none" xmlns="http://www.w3.org/2000/svg">
<path d="M303.782 325C285.428 325 267.863 312.512 250.882 300.433C243.478 295.161 235.818 289.719 228.262 285.449C200.933 269.997 169.828 268.702 140.366 268.702C135.691 268.702 131.016 268.743 126.342 268.778C121.667 268.813 116.946 268.854 112.253 268.854C93.3324 268.854 73.1669 268.269 53.8486 263.864C34.0746 259.371 19.32 251.311 10.0232 239.9C-1.66358 225.596 -3.34659 205.065 6.11386 192.137C15.8957 178.77 32.8767 176.204 49.3024 173.726C62.304 171.764 75.7496 169.737 86.0632 162.515C101.437 151.754 106.877 131.698 109.904 115.431C110.354 112.994 110.787 110.546 111.219 108.08C113.971 92.3752 116.811 76.1436 126.044 63.0576C133.424 52.5959 146.385 45.5667 158.282 45.5667C164.253 45.4704 170.07 47.4653 174.731 51.2076C182.391 57.4753 185.576 67.363 188.656 76.9285C192.051 87.4723 195.264 97.4303 203.959 102.79C207.193 104.821 210.93 105.903 214.746 105.912C230.553 105.912 246.301 87.6714 251.086 70.6374C252.565 65.3655 253.751 59.7774 254.902 54.359C258.572 37.0614 262.37 19.1721 276.067 8.29445C283.003 2.78826 291.371 0 300.948 0C317.169 0 335.81 8.36474 349.606 21.8373C358.12 30.1493 365.453 39.8145 372.553 49.1574C381.493 60.9313 390.738 73.1093 402.354 82.505C411.598 89.9969 422.333 95.714 432.711 101.249C440.143 105.209 447.833 109.304 454.968 114.037C464.931 120.65 488.001 138.803 486.966 164.465C485.733 194.925 452.192 211.643 437.829 217.418C432.798 219.439 427.551 221.343 422.479 223.182C403.99 229.878 384.877 236.801 371.723 251.235C363.951 259.763 358.371 270.793 352.972 281.46C343.973 299.238 335.477 316.02 317.648 322.54C313.206 324.169 308.512 325.002 303.782 325V325ZM140.366 266.898C170.091 266.898 201.435 268.21 229.144 283.885C236.782 288.202 244.478 293.673 251.934 298.969C268.687 310.883 286.012 323.202 303.794 323.202C308.303 323.202 312.776 322.409 317.011 320.859C334.168 314.591 342.512 298.108 351.347 280.658C356.799 269.885 362.45 258.744 370.373 250.034C383.813 235.273 403.149 228.273 421.848 221.501C426.908 219.668 432.138 217.776 437.14 215.761C451.164 210.114 483.957 193.806 485.149 164.407C486.154 139.664 463.669 122.003 453.957 115.554C446.898 110.868 439.249 106.767 431.852 102.854C421.398 97.2838 410.588 91.5317 401.209 83.9284C389.452 74.398 380.138 62.1321 371.133 50.2703C364.08 40.9801 356.782 31.3736 348.344 23.1553C334.875 10.0049 316.713 1.83345 300.942 1.83345C291.78 1.83345 283.786 4.49282 277.177 9.74128C263.989 20.2148 260.26 37.776 256.655 54.7632C255.486 60.2108 254.318 65.8517 252.81 71.1646C247.867 88.7375 231.908 107.751 214.74 107.751C210.592 107.745 206.529 106.572 203.013 104.366C193.745 98.6721 190.28 87.9233 186.932 77.5201C183.934 68.2065 180.831 58.5706 173.58 52.6427C169.24 49.1641 163.826 47.3121 158.27 47.406C146.922 47.406 134.557 54.1305 127.499 64.1354C118.5 76.8875 115.689 92.9199 112.978 108.425C112.545 110.891 112.113 113.351 111.657 115.794C108.572 132.401 102.986 152.891 87.0799 164.026C76.4216 171.489 62.7656 173.55 49.5595 175.542C32.7598 178.078 16.895 180.474 7.5573 193.232C-2.68616 207.226 1.89497 227.148 11.408 238.787C20.4711 249.882 34.8926 257.731 54.2635 262.13C73.4064 266.476 93.4551 267.074 112.271 267.074C116.946 267.074 121.655 267.033 126.342 266.998C131.028 266.962 135.709 266.898 140.366 266.898Z" fill="#6A1AB7"/>
</svg>
